<svg width="140" height="41" viewBox="0 0 140 41" fill="none" xmlns="http://www.w3.org/2000/svg">
<path d="M20.0276 39.1181C30.4762 39.1181 38.9465 30.6343 38.9465 20.1691C38.9465 9.70382 30.4762 1.22006 20.0276 1.22006C9.57894 1.22006 1.10864 9.70382 1.10864 20.1691C1.10864 30.6343 9.57894 39.1181 20.0276 39.1181Z" fill="#FDFFE9"/>
<path d="M39.789 19.9363C39.4688 20.7615 39.8803 21.0829 39.6976 21.9542C39.7436 22.5501 39.6515 23.2838 39.3774 23.9259C39.3774 24.7056 39.24 25.2562 38.9198 25.8061C38.691 26.7235 38.5996 27.1357 38.2327 27.6401C38.0038 28.1907 37.9125 28.6952 37.4088 29.3827C36.8591 30.0248 36.8591 30.3916 36.4015 31.0337C35.7604 31.6758 35.4855 32.3634 35.2567 32.5471C34.6617 33.0977 34.4782 33.4184 33.9746 33.969C33.8371 34.6111 32.9212 34.7026 32.601 35.2532C32.1887 35.9414 31.8685 36.216 31.044 36.3998C30.4029 36.4913 29.7165 37.4087 29.4416 37.4087C28.6631 37.4548 28.5717 38.1884 27.7018 38.2338C26.9233 38.7844 26.3283 38.7844 25.8706 38.9221C24.9547 38.9682 24.5431 38.5553 23.9934 39.3804C23.3984 39.5635 22.9401 39.6557 22.0248 39.7011C21.2924 39.6096 20.7427 39.9303 20.0102 39.7926C19.0943 39.7011 18.8194 39.8388 17.9956 39.7011C17.3545 39.3804 16.8048 39.5181 16.027 39.3804C15.6607 39.0597 14.6995 39.3804 14.1497 38.9221C13.3259 38.5553 12.7762 38.6468 12.3186 38.2338C11.861 38.0508 10.945 37.6833 10.5788 37.4087C10.0751 36.8581 9.43404 37.088 8.93038 36.3998C8.15186 36.1706 8.01444 35.7115 7.4194 35.2532C6.68693 34.7949 6.3207 34.428 5.99979 33.969C5.72494 33.2354 5.1299 33.373 4.71761 32.5471C4.03048 32.2264 3.84773 31.5382 3.57287 31.0337C3.29802 30.254 2.70298 30.1625 2.56555 29.3827C2.33674 28.603 1.69565 28.0531 1.7417 27.6401C1.51289 26.998 1.23803 26.4475 1.10061 25.8061C0.734374 25.3477 0.459519 24.4303 0.596946 23.9259C0.596946 23.3753 0.230716 22.504 0.276765 21.9542C0.139338 21.0829 0.00190908 20.8991 0.185386 19.9363C-0.134799 19.065 0.00191049 18.5144 0.276765 17.9185C0.322814 17.414 0.36814 16.8634 0.596946 15.9467C1.00923 15.5338 0.642995 14.6171 1.10061 14.0665C1.14666 13.6997 1.78775 12.5532 1.7417 12.2325C1.78775 11.5442 2.19932 10.9028 2.56555 10.4899C3.11526 10.2607 2.93178 9.5725 3.57287 8.83887C4.03048 8.05912 4.12257 7.82995 4.71761 7.32549C5.40475 6.95867 5.40476 6.0874 5.99979 5.90363C6.27465 5.76598 7.00711 5.07847 7.4194 4.61941C7.96911 4.20648 8.24324 3.93118 8.93038 3.47284C9.52542 3.42672 9.9377 2.78461 10.5788 2.51004C10.899 2.46392 11.8149 1.63877 12.3186 1.63877C13.1424 1.22583 13.1885 0.950536 14.1497 0.996658C15.0196 0.905134 15.6147 0.859012 16.027 0.492196C16.7594 0.171503 17.1717 0.263026 17.9956 0.171502C18.5906 -0.012266 19.5065 0.171505 20.0102 0.0799813C20.6513 -0.0576646 21.4298 -0.0115454 22.0248 0.171502C22.712 0.58444 23.4444 0.309149 23.9934 0.492196C24.3136 0.905134 25.0008 0.675964 25.8706 0.996658C26.7866 1.31735 26.9694 1.73029 27.7018 1.63877C28.1594 2.09711 29.1668 2.32699 29.4416 2.51004C30.2655 2.69381 30.5403 3.28979 31.044 3.47284C31.7311 3.56437 32.0973 4.43565 32.601 4.61941C33.1507 4.75706 33.2421 5.39917 33.9746 5.94903C34.5696 6.59114 34.9358 6.82031 35.2567 7.32477C35.9439 8.14992 35.9439 8.33369 36.4015 8.88427C36.9512 9.43486 36.9512 9.66403 37.4088 10.4892C37.4548 11.0398 38.2787 11.6358 38.2327 12.2317C38.7824 13.0115 38.7363 13.699 38.9198 14.0658C38.8284 14.9371 39.1946 15.2585 39.3774 15.946C39.5148 16.8634 39.6062 17.1841 39.6976 17.9177C39.4227 18.8805 39.9264 19.3396 39.789 19.9356V19.9363ZM3.34262 26.9526C3.34262 27.7785 3.80024 28.283 4.12114 28.5576C4.21252 29.2458 4.85361 29.7956 5.03708 30.0248C5.35727 30.3916 5.40332 30.8961 6.09045 31.4467C6.73154 31.905 6.64016 32.2718 7.2352 32.7309C7.78491 33.4191 8.28857 33.4191 8.51738 33.8775C8.74618 34.5657 9.02104 35.2532 9.93698 34.9325C10.4867 35.2078 10.7608 35.8038 11.4019 35.8038C11.6307 35.9414 12.5006 36.3082 13.0043 36.5835C13.2331 36.9965 14.3778 36.8127 14.6527 37.1795C14.9729 37.3172 15.5226 37.7301 16.3925 37.6379C16.8048 37.5002 17.4458 38.0969 18.1783 37.9132C18.7734 38.2338 19.5979 37.867 20.0095 38.0047C20.4218 38.1877 20.9707 38.1423 21.8406 37.9132C22.2069 38.1423 23.0314 37.7294 23.6265 37.6379C23.9013 37.684 24.5424 37.684 25.3663 37.1795C25.8239 37.0419 26.6024 36.7212 27.0147 36.5835C27.4723 36.3082 28.3422 36.0329 28.5717 35.8038C28.8466 35.7123 29.2589 35.024 30.0827 34.9325C30.7698 34.6572 31.2274 34.2443 31.4562 33.8775C32.0513 33.4191 32.1887 33.0977 32.7384 32.6855C33.2421 32.5478 33.8371 32.181 33.9292 31.4013C34.0206 30.9883 34.8905 30.3924 34.9365 30.0255C35.5316 29.5211 35.8064 29.0166 35.8525 28.5583C36.3101 27.7785 36.2648 27.6409 36.631 26.9534C36.8598 26.7242 37.1347 25.6691 37.226 25.3023C37.0886 24.7518 37.4549 24.4765 37.6837 23.5598C37.6376 23.0553 38.1873 22.6424 37.9585 21.7711C37.7297 21.4504 38.142 20.6707 38.0499 19.937C37.8664 19.6163 37.7297 18.6074 37.9585 18.1029C38.1873 17.3232 38.0499 16.9103 37.6837 16.3143C37.2714 15.8098 37.4088 15.2138 37.226 14.5717C37.0886 14.2964 37.0886 13.792 36.631 12.9207C36.4936 12.3701 36.1274 12.0033 35.8525 11.3612C35.3488 10.8567 35.5323 10.1231 34.9365 9.8478C34.7077 9.11416 34.2955 9.11417 33.9292 8.47206C33.8378 8.05912 33.3342 7.60078 32.7384 7.18784C32.2808 7.00408 32.1887 6.63726 31.4562 5.99515C30.9065 5.62833 31.2728 4.75706 30.2655 4.98623C29.533 4.8947 29.0747 4.48177 28.571 4.06883C28.2961 3.93118 27.3349 3.79354 27.014 3.28907C26.2815 3.05991 25.9606 2.69309 25.3656 2.69309C24.8158 2.55545 23.9459 2.64697 23.6258 2.23475C22.8019 2.14323 22.1148 2.32627 21.8399 1.95946C21.3823 2.18863 20.4203 2.05098 20.0088 1.86794C19.1389 1.59264 18.5438 2.0971 18.1776 1.95946C17.5365 2.14323 16.6666 2.32627 16.3918 2.23475C15.4758 2.3724 15.1556 2.46392 14.652 2.69309C14.1023 3.10603 13.5533 3.01378 13.0036 3.28907C12.4999 3.74741 11.7674 3.51825 11.4012 4.06883C10.8062 4.66481 10.6687 4.98623 9.93626 4.98623C9.34122 5.35304 9.2038 5.58221 8.47133 5.94903C8.05905 6.40737 7.28053 6.08668 7.2352 7.18712C6.68549 7.82923 6.22788 8.0584 6.0444 8.47134C5.49469 9.20497 5.63212 9.52638 5.03708 9.84707C4.85361 10.1224 4.67085 11.0852 4.12114 11.3605C3.57143 11.8649 3.434 12.6901 3.34262 12.92C3.11381 13.4244 2.74758 13.975 2.74758 14.571C2.47272 15.4423 2.5641 15.5338 2.28997 16.3136C1.83236 17.0018 2.28997 17.4601 2.01512 18.1022C1.83164 18.9735 2.06116 19.065 1.92374 19.9363C1.74026 20.3946 1.64888 21.0829 2.01512 21.7704C1.83164 22.2287 2.38135 22.9631 2.28997 23.5591C2.70225 24.155 2.38135 24.5219 2.74758 25.3016L3.34262 26.9526Z" fill="#E60000"/>
<path d="M12.9202 7.19217C13.603 6.88012 14.1297 7.08479 14.5003 7.80761C14.832 8.31567 14.8902 9.1365 14.6758 10.2701C14.5974 11.052 14.8809 11.3251 15.5248 11.0909C16.3242 10.9936 16.8905 11.2862 17.2222 11.9701C17.5927 13.3769 16.8315 14.6373 14.9392 15.7514C14.4319 16.2595 14.2074 16.7777 14.2664 17.3052V18.9468C14.4808 19.2596 14.8125 19.416 15.2615 19.416C15.6515 19.4354 16.0415 19.5234 16.4322 19.6797C17.5244 19.9341 17.9633 20.5496 17.7489 21.5261C17.1826 22.4838 16.2659 22.669 14.9982 22.0831C14.6276 21.9073 14.3736 21.9657 14.2369 22.259C14.1786 24.3107 14.1585 26.392 14.1786 28.5028C14.4715 29.9484 13.9541 31.2384 12.6274 32.372C12.1201 32.1378 11.8467 31.4827 11.8078 30.4082C11.7495 27.79 11.72 25.0933 11.72 22.3181C11.4272 21.8489 10.9099 22.006 10.1688 22.7872C9.30967 23.4906 8.45201 24.2631 7.59363 25.1027C7.04751 25.6497 6.85181 25.5719 7.00866 24.8685C7.55477 23.4027 8.65707 21.5081 10.3156 19.1818C10.725 18.6737 10.9106 18.2536 10.8717 17.9213C10.7739 17.7851 10.4328 17.6972 9.84715 17.6576C9.16361 17.5012 8.49085 17.1207 7.82818 16.5146C6.81366 15.4596 7.20364 14.5314 8.99883 13.73L11.3401 12.587C11.574 12.3723 11.7208 12.2159 11.779 12.1179C11.8373 10.985 11.8568 9.84131 11.8373 8.68826C11.8762 7.94598 12.2367 7.44728 12.9202 7.19361V7.19217ZM26.8795 10.2117C27.6595 9.23451 28.4495 9.28352 29.2503 10.358C29.4647 10.8466 29.5719 11.2963 29.5719 11.7064C29.3381 12.4494 29.6597 12.84 30.5375 12.8789C31.2786 12.84 32.0197 13.3185 32.7616 14.3152C33.0731 15.4488 32.6054 15.9669 31.3571 15.8689C30.9664 15.8689 30.5764 15.8985 30.1864 15.9568C29.6597 16.1132 29.4547 16.5139 29.5719 17.1589C29.6108 19.8167 29.6014 22.4745 29.5424 25.1315C29.5619 26.5584 29.3179 27.7598 28.8107 28.737L27.4645 30.1149C26.8205 30.8183 26.2643 30.8572 25.7966 30.2324C25.5628 29.7048 25.3872 29.382 25.27 29.2652C24.2554 28.9914 23.251 29.1089 22.2559 29.6169C21.7681 30.2417 21.3292 30.2907 20.9392 29.7632C20.2952 28.3759 19.8858 26.4806 19.7103 24.0765C19.6124 22.3959 19.5441 20.7161 19.5052 19.0348C19.3685 18.6831 19.0857 18.4878 18.6562 18.4489C17.8561 18.1556 17.4459 17.677 17.4272 17.0126C17.1733 16.0556 17.5927 15.4495 18.6857 15.1951C19.5052 15.0776 19.8268 14.5796 19.6513 13.7004C19.729 12.5279 20.0902 11.5507 20.7341 10.7695C21.163 10.3595 21.5925 10.2715 22.0221 10.5058C22.6847 11.4051 22.8509 12.4213 22.5193 13.5541C22.6365 14.2186 23.0359 14.4146 23.7194 14.14L25.7096 13.7588C26.2945 13.5635 26.568 13.2608 26.5291 12.8501C26.373 11.7359 26.4895 10.8567 26.8802 10.2117H26.8795ZM25.5045 16.836C24.7238 17.0119 23.9432 17.2273 23.1632 17.481C22.3437 17.6763 22.0019 18.224 22.1386 19.1227C22.1192 19.8073 22.1286 20.52 22.1681 21.2623C22.3437 21.5556 22.6754 21.5845 23.1632 21.3502C24.2166 20.9596 25.1239 21.0086 25.8851 21.4965C26.1578 21.7307 26.3536 21.8482 26.4701 21.8482C26.5874 21.7509 26.6752 21.4086 26.7335 20.822C26.6939 19.6891 26.6845 18.5555 26.704 17.4219C26.6061 16.7582 26.2068 16.5622 25.5038 16.836H25.5045ZM26.704 23.6362C26.7817 23.167 26.704 22.8153 26.4701 22.5811C26.3723 22.5811 26.0506 22.7966 25.5045 23.2261C24.8411 23.5389 24.0605 23.7731 23.1632 23.9295C22.3243 24.0469 22.0019 24.6033 22.1976 25.6L22.3149 26.7725C22.3926 27.2416 22.7049 27.4369 23.2517 27.3584C23.8755 27.1631 24.4612 27.0852 25.0073 27.1242C25.6312 27.2805 26.0118 27.3195 26.1485 27.2416C26.5579 26.5383 26.7435 25.3362 26.7047 23.6362H26.704Z" fill="#E60000"/>
<path d="M54.0161 39.1858C64.4127 39.1858 72.8408 30.7443 72.8408 20.3312C72.8408 9.91812 64.4127 1.47662 54.0161 1.47662C43.6195 1.47662 35.1914 9.91812 35.1914 20.3312C35.1914 30.7443 43.6195 39.1858 54.0161 39.1858Z" fill="#FDFFE9"/>
<path d="M73.684 20.1921C73.3638 21.0173 73.7754 21.3387 73.5926 22.21C73.6386 22.806 73.5465 23.5396 73.2724 24.1817C73.2724 24.9615 73.135 25.512 72.8148 26.0619C72.586 26.9793 72.4946 27.3915 72.1277 27.896C71.8989 28.4466 71.8075 28.951 71.3038 29.6385C70.7541 30.2806 70.7541 30.6475 70.2965 31.2896C69.6554 31.9317 69.3806 32.6192 69.1517 32.8029C68.5567 33.3535 68.3732 33.6742 67.8696 34.2248C67.7321 34.8669 66.8162 34.9584 66.496 35.509C66.0837 36.1973 65.7636 36.4718 64.939 36.6556C64.2979 36.7471 63.6115 37.6645 63.3366 37.6645C62.5581 37.7106 62.4667 38.4443 61.5968 38.4897C60.8183 39.0403 60.2233 39.0403 59.7657 39.1779C58.8497 39.224 58.4382 38.8111 57.8884 39.6362C57.2934 39.8193 56.8351 39.9115 55.9199 39.9569C55.1874 39.8654 54.6377 40.1861 53.9052 40.0485C52.9893 39.9569 52.7144 40.0946 51.8906 39.9569C51.2495 39.6362 50.6998 39.7739 49.922 39.6362C49.5557 39.3155 48.5945 39.6362 48.0448 39.1779C47.2209 38.8111 46.6712 38.9026 46.2136 38.4897C45.756 38.3066 44.84 37.9391 44.4738 37.6645C43.9701 37.1139 43.3291 37.3438 42.8254 36.6556C42.0469 36.4264 41.9094 35.9674 41.3144 35.509C40.5819 35.0507 40.2157 34.6839 39.8948 34.2248C39.62 33.4912 39.0249 33.6288 38.6126 32.8029C37.9255 32.4823 37.7427 31.794 37.4679 31.2896C37.193 30.5098 36.598 30.4183 36.4606 29.6385C36.2318 28.8588 35.5907 28.3089 35.6367 27.896C35.4079 27.2539 35.1331 26.7033 34.9956 26.0619C34.6294 25.6036 34.3545 24.6862 34.492 24.1817C34.492 23.6311 34.1257 22.7598 34.1718 22.21C34.0344 21.3387 33.8969 21.1549 34.0804 20.1921C33.7602 19.3209 33.8969 18.7703 34.1718 18.1743C34.2178 17.6698 34.2632 17.1192 34.492 16.2026C34.9043 15.7896 34.538 14.8729 34.9956 14.3224C35.0417 13.9555 35.6828 12.809 35.6367 12.4883C35.6828 11.8001 36.0943 11.1587 36.4606 10.7457C37.0103 10.5166 36.8268 9.82833 37.4679 9.0947C37.9255 8.31495 38.0176 8.08578 38.6126 7.58132C39.2998 7.2145 39.2998 6.34322 39.8948 6.15946C40.1697 6.02181 40.9021 5.3343 41.3144 4.87524C41.8641 4.4623 42.1383 4.18701 42.8254 3.72867C43.4204 3.68255 43.8327 3.04044 44.4738 2.76587C44.794 2.71975 45.7099 1.89459 46.2136 1.89459C47.0374 1.48166 47.0835 1.20636 48.0448 1.25249C48.9147 1.16096 49.5097 1.11484 49.922 0.748024C50.6544 0.42733 51.0667 0.518858 51.8906 0.427334C52.4856 0.243566 53.4015 0.427332 53.9052 0.335809C54.5463 0.198163 55.3248 0.244286 55.9199 0.427334C56.607 0.840272 57.3395 0.564976 57.8884 0.748024C58.2086 1.16096 58.8958 0.931792 59.7657 1.25249C60.6816 1.57318 60.8644 1.98612 61.5968 1.89459C62.0544 2.35293 63.0618 2.58282 63.3366 2.76587C64.1605 2.94964 64.4353 3.54563 64.939 3.72867C65.6261 3.8202 65.9923 4.69147 66.496 4.87524C67.0457 5.01289 67.1371 5.655 67.8696 6.20486C68.4646 6.84697 68.8308 7.07613 69.1517 7.58059C69.8389 8.40575 69.8389 8.58952 70.2965 9.1401C70.8462 9.69069 70.8462 9.91986 71.3038 10.745C71.3499 11.2956 72.1737 11.8916 72.1277 12.4876C72.6774 13.2673 72.6313 13.9548 72.8148 14.3216C72.7234 15.1929 73.0897 15.5143 73.2724 16.2018C73.4098 17.1192 73.5012 17.4399 73.5926 18.1736C73.3177 19.1364 73.8214 19.5954 73.684 20.1914V20.1921ZM37.2376 27.2085C37.2376 28.0343 37.6953 28.5388 38.0162 28.8134C38.1075 29.5016 38.7486 30.0515 38.9321 30.2806C39.2523 30.6475 39.2983 31.1519 39.9855 31.7025C40.6266 32.1608 40.5352 32.5277 41.1302 32.9867C41.6799 33.6749 42.1836 33.6749 42.4124 34.1333C42.6412 34.8215 42.9161 35.509 43.832 35.1883C44.3817 35.4636 44.6558 36.0596 45.2969 36.0596C45.5257 36.1973 46.3956 36.5641 46.8993 36.8394C47.1281 37.2523 48.2728 37.0685 48.5477 37.4353C48.8679 37.573 49.4176 37.9859 50.2875 37.8937C50.6998 37.756 51.3409 38.3527 52.0733 38.169C52.6684 38.4897 53.4929 38.1229 53.9045 38.2605C54.3168 38.4435 54.8658 38.3982 55.7357 38.169C56.1019 38.3982 56.9265 37.9852 57.5215 37.8937C57.7964 37.9398 58.4374 37.9398 59.2613 37.4353C59.7189 37.2977 60.4974 36.977 60.9097 36.8394C61.3673 36.5641 62.2372 36.2888 62.4667 36.0596C62.7416 35.9681 63.1539 35.2799 63.9777 35.1883C64.6648 34.913 65.1225 34.5001 65.3513 34.1333C65.9463 33.6749 66.0837 33.3535 66.6334 32.9413C67.1371 32.8037 67.7321 32.4369 67.8242 31.6571C67.9156 31.2442 68.7855 30.6482 68.8316 30.2814C69.4266 29.7769 69.7015 29.2724 69.7475 28.8141C70.2051 28.0343 70.1598 27.8967 70.526 27.2092C70.7548 26.98 71.0297 25.925 71.1211 25.5582C70.9836 25.0076 71.3499 24.7323 71.5787 23.8156C71.5326 23.3111 72.0823 22.8982 71.8535 22.0269C71.6247 21.7062 72.037 20.9265 71.9449 20.1929C71.7614 19.8722 71.6247 18.8632 71.8535 18.3588C72.0823 17.579 71.9449 17.1661 71.5787 16.5701C71.1664 16.0656 71.3038 15.4697 71.1211 14.8275C70.9836 14.5523 70.9836 14.0478 70.526 13.1765C70.3886 12.6259 70.0224 12.2591 69.7475 11.617C69.2438 11.1125 69.4273 10.3789 68.8316 10.1036C68.6028 9.36999 68.1905 9.36999 67.8242 8.72789C67.7329 8.31495 67.2292 7.85661 66.6334 7.44367C66.1758 7.2599 66.0837 6.89309 65.3513 6.25098C64.8016 5.88417 65.1678 5.01289 64.1605 5.24206C63.428 5.15053 62.9697 4.73759 62.466 4.32466C62.1911 4.18701 61.2299 4.04936 60.909 3.5449C60.1765 3.31573 59.8556 2.94892 59.2606 2.94892C58.7109 2.81127 57.841 2.9028 57.5208 2.49058C56.6969 2.39906 56.0098 2.5821 55.7349 2.21529C55.2773 2.44446 54.3153 2.30681 53.9038 2.12376C53.0339 1.84847 52.4388 2.35294 52.0726 2.21529C51.4315 2.39906 50.5616 2.58211 50.2868 2.49058C49.3708 2.62823 49.0506 2.71975 48.547 2.94892C47.9973 3.36186 47.4483 3.26961 46.8986 3.5449C46.3949 4.00324 45.6624 3.77407 45.2962 4.32466C44.7012 4.92064 44.5637 5.24206 43.8313 5.24206C43.2362 5.60887 43.0988 5.83804 42.3663 6.20486C41.9541 6.6632 41.1755 6.3425 41.1302 7.44295C40.5805 8.08506 40.1229 8.31423 39.9394 8.72717C39.3897 9.4608 39.5271 9.78221 38.9321 10.1029C38.7486 10.3782 38.5659 11.341 38.0162 11.6163C37.4664 12.1207 37.329 12.9459 37.2376 13.1758C37.0088 13.6803 36.6426 14.2308 36.6426 14.8268C36.3677 15.6981 36.4591 15.7896 36.185 16.5694C35.7274 17.2576 36.185 17.7159 35.9101 18.3581C35.7267 19.2293 35.9562 19.3209 35.8188 20.1921C35.6353 20.6505 35.5439 21.3387 35.9101 22.0262C35.7267 22.4846 36.2764 23.2189 36.185 23.8149C36.5973 24.4109 36.2764 24.7777 36.6426 25.5574L37.2376 27.2085Z" fill="#E60000"/>
<path d="M46.2122 10.4113C46.9921 9.4543 47.7433 8.88714 48.4657 8.7113C48.5628 8.7113 48.865 8.97506 49.373 9.50259C50.1925 10.812 49.8018 12.2778 48.2023 13.8993C47.5778 14.6812 46.9043 15.4531 46.1834 16.2148C45.9884 16.4887 45.9495 16.733 46.0661 16.9477C47.1972 17.5336 47.6756 18.1692 47.5001 18.8531C47.0317 21.9599 47.0317 25.6144 47.5001 29.8158C47.3439 30.7541 46.846 31.4575 46.0078 31.9266C45.774 32.0045 45.6171 32.0239 45.5394 31.985C45.0904 31.5548 44.8077 30.7339 44.6904 29.5225C44.3393 25.8291 44.3781 22.4197 44.8077 19.2927C44.8465 18.8236 44.8271 18.5505 44.7494 18.4719C44.5932 18.3544 44.3587 18.4719 44.0471 18.8236C43.5003 19.8397 42.7203 20.9049 41.7058 22.0183L41.0331 22.3699C40.428 22.5652 40.1351 22.37 40.1553 21.7841C40.9942 17.8759 43.0132 14.0853 46.2129 10.4113H46.2122ZM58.3871 9.26837C59.0497 8.17441 59.9866 8.21333 61.1968 9.38584C62.2502 10.0892 62.1717 10.91 60.9629 11.8483C60.378 12.4155 59.4016 13.1873 58.0367 14.1638C57.2949 14.6913 57.256 15.2679 57.9194 15.8934C58.3482 16.7539 58.8656 17.1055 59.4707 16.9484L61.812 16.6551C63.002 16.382 63.9194 16.5088 64.5627 17.0364C65.2066 17.4861 65.5088 18.0626 65.47 18.7659C65.4894 19.2156 65.2455 19.5479 64.7382 19.7626C64.2504 20.0365 63.3042 20.0365 61.8997 19.7626C60.8262 19.5089 60.0657 19.5673 59.6167 19.9384C59.4016 20.1337 59.3534 20.4955 59.4707 21.023C59.7239 23.2708 59.6268 25.3715 59.1778 27.3252C58.9044 28.791 58.4461 29.9924 57.8021 30.9307C57.4308 31.2823 57.1675 31.4676 57.0121 31.4877C56.6408 31.585 56.163 31.8488 55.5781 32.279C55.1097 32.5132 54.719 32.6307 54.4074 32.6307C53.7052 32.6112 53.3145 32.279 53.2368 31.634C53.2368 31.5166 53.1296 31.2629 52.9152 30.8716C52.3489 30.2266 52.4273 29.9924 53.149 30.1682C54.6513 30.3441 55.7241 29.4252 56.3681 27.4131C56.8365 25.5567 57.0308 23.7003 56.9531 21.8439C56.9725 21.356 56.8847 20.9157 56.6897 20.5251C56.5336 20.2714 56.1926 20.213 55.6652 20.3492C53.9872 20.6425 52.4259 21.0526 50.9825 21.5801C50.1436 22.0298 49.4313 21.7466 48.8463 20.7297C48.3973 20.1438 48.4952 19.5572 49.1391 18.9713C50.4854 18.2089 52.4266 17.721 54.9629 17.5055C55.8407 17.3102 55.9378 16.8418 55.2557 16.0988C54.4362 15.3176 54.2024 14.78 54.5535 14.4867C54.7096 14.3692 55.1385 14.3598 55.8414 14.4571C56.5437 14.8484 57.0509 14.6625 57.3632 13.9C57.7532 13.1578 58.0655 12.2685 58.3 11.2329C58.2604 10.7054 57.8705 10.6081 57.1294 10.9396C55.9587 11.4087 54.7881 11.9168 53.6174 12.4638C52.954 12.8738 52.3683 12.9819 51.8618 12.7859C50.7106 12.4537 50.5739 11.7799 51.4524 10.7637C51.8424 10.4315 52.2028 10.2168 52.5353 10.1187C54.0959 9.92345 55.6565 9.76707 57.2179 9.6496C57.6863 9.70797 58.0762 9.58114 58.3885 9.26837H58.3871Z" fill="#E60000"/>
<path d="M85.4917 39.1584C95.9011 39.1584 104.339 30.7066 104.339 20.2808C104.339 9.85492 95.9011 1.40311 85.4917 1.40311C75.0824 1.40311 66.644 9.85492 66.644 20.2808C66.644 30.7066 75.0824 39.1584 85.4917 39.1584Z" fill="#FDFFE9"/>
<path d="M105.603 20.1921C105.283 21.0173 105.694 21.3387 105.512 22.21C105.558 22.806 105.466 23.5396 105.191 24.1817C105.191 24.9615 105.054 25.512 104.734 26.0619C104.505 26.9793 104.414 27.3915 104.047 27.896C103.818 28.4466 103.726 28.951 103.223 29.6385C102.673 30.2806 102.673 30.6475 102.215 31.2896C101.574 31.9317 101.3 32.6192 101.071 32.8029C100.476 33.3535 100.292 33.6742 99.7885 34.2248C99.6511 34.8669 98.7352 34.9584 98.415 35.509C98.0027 36.1973 97.6825 36.4718 96.8579 36.6556C96.2168 36.7471 95.5304 37.6645 95.2556 37.6645C94.4771 37.7106 94.3857 38.4443 93.5158 38.4897C92.7373 39.0403 92.1422 39.0403 91.6846 39.1779C90.7687 39.224 90.3571 38.8111 89.8074 39.6362C89.2124 39.8193 88.754 39.9115 87.8388 39.9569C87.1063 39.8654 86.5566 40.1861 85.8242 40.0485C84.9082 39.9569 84.6334 40.0946 83.8095 39.9569C83.1684 39.6362 82.6187 39.7739 81.8409 39.6362C81.4747 39.3155 80.5134 39.6362 79.9637 39.1779C79.1399 38.8111 78.5901 38.9026 78.1325 38.4897C77.6749 38.3066 76.759 37.9391 76.3928 37.6645C75.8891 37.1139 75.248 37.3438 74.7443 36.6556C73.9658 36.4264 73.8284 35.9674 73.2334 35.509C72.5009 35.0507 72.1347 34.6839 71.8138 34.2248C71.5389 33.4912 70.9439 33.6288 70.5316 32.8029C69.8444 32.4823 69.6617 31.794 69.3868 31.2896C69.112 30.5098 68.5169 30.4183 68.3795 29.6385C68.1507 28.8588 67.5096 28.3089 67.5557 27.896C67.3269 27.2539 67.052 26.7033 66.9146 26.0619C66.5483 25.6036 66.2735 24.6862 66.4109 24.1817C66.4109 23.6311 66.0447 22.7598 66.0907 22.21C65.9533 21.3387 65.8159 21.1549 65.9994 20.1921C65.6792 19.3209 65.8159 18.7703 66.0907 18.1743C66.1368 17.6698 66.1821 17.1192 66.4109 16.2026C66.8232 15.7896 66.457 14.8729 66.9146 14.3224C66.9606 13.9555 67.6017 12.809 67.5557 12.4883C67.6017 11.8001 68.0133 11.1587 68.3795 10.7457C68.9292 10.5166 68.7457 9.82833 69.3868 9.0947C69.8444 8.31495 69.9365 8.08578 70.5316 7.58132C71.2187 7.2145 71.2187 6.34322 71.8138 6.15946C72.0886 6.02181 72.8211 5.3343 73.2334 4.87524C73.7831 4.4623 74.0572 4.18701 74.7443 3.72867C75.3394 3.68255 75.7517 3.04044 76.3928 2.76587C76.7129 2.71975 77.6289 1.89459 78.1325 1.89459C78.9564 1.48166 79.0024 1.20636 79.9637 1.25249C80.8336 1.16096 81.4286 1.11484 81.8409 0.748024C82.5734 0.42733 82.9857 0.518858 83.8095 0.427334C84.4046 0.243566 85.3205 0.427332 85.8242 0.335809C86.4653 0.198163 87.2438 0.244286 87.8388 0.427334C88.5259 0.840272 89.2584 0.564976 89.8074 0.748024C90.1276 1.16096 90.8147 0.931792 91.6846 1.25249C92.6006 1.57318 92.7833 1.98612 93.5158 1.89459C93.9734 2.35293 94.9807 2.58282 95.2556 2.76587C96.0794 2.94964 96.3543 3.54563 96.8579 3.72867C97.5451 3.8202 97.9113 4.69147 98.415 4.87524C98.9647 5.01289 99.056 5.655 99.7885 6.20486C100.384 6.84697 100.75 7.07613 101.071 7.58059C101.758 8.40575 101.758 8.58952 102.215 9.1401C102.765 9.69069 102.765 9.91986 103.223 10.745C103.269 11.2956 104.093 11.8916 104.047 12.4876C104.596 13.2673 104.55 13.9548 104.734 14.3216C104.642 15.1929 105.009 15.5143 105.191 16.2018C105.329 17.1192 105.42 17.4399 105.512 18.1736C105.237 19.1364 105.74 19.5954 105.603 20.1914V20.1921ZM69.1573 27.2085C69.1573 28.0343 69.6149 28.5388 69.9358 28.8134C70.0272 29.5016 70.6683 30.0515 70.8518 30.2806C71.1719 30.6475 71.218 31.1519 71.9051 31.7025C72.5462 32.1608 72.4548 32.5277 73.0499 32.9867C73.5996 33.6749 74.1033 33.6749 74.3321 34.1333C74.5609 34.8215 74.8357 35.509 75.7517 35.1883C76.3014 35.4636 76.5755 36.0596 77.2166 36.0596C77.4454 36.1973 78.3153 36.5641 78.819 36.8394C79.0478 37.2523 80.1925 37.0685 80.4674 37.4353C80.7875 37.573 81.3373 37.9859 82.2072 37.8937C82.6194 37.756 83.2605 38.3527 83.993 38.169C84.588 38.4897 85.4126 38.1229 85.8242 38.2605C86.2365 38.4435 86.7854 38.3982 87.6553 38.169C88.0216 38.3982 88.8461 37.9852 89.4412 37.8937C89.716 37.9398 90.3571 37.9398 91.181 37.4353C91.6386 37.2977 92.4171 36.977 92.8294 36.8394C93.287 36.5641 94.1569 36.2888 94.3864 36.0596C94.6613 35.9681 95.0735 35.2799 95.8974 35.1883C96.5845 34.913 97.0421 34.5001 97.2709 34.1333C97.866 33.6749 98.0034 33.3535 98.5531 32.9413C99.0568 32.8037 99.6518 32.4369 99.7439 31.6571C99.8353 31.2442 100.705 30.6482 100.751 30.2814C101.346 29.7769 101.621 29.2724 101.667 28.8141C102.125 28.0343 102.079 27.8967 102.446 27.2092C102.675 26.98 102.949 25.925 103.041 25.5582C102.903 25.0076 103.27 24.7323 103.498 23.8156C103.452 23.3111 104.002 22.8982 103.773 22.0269C103.544 21.7062 103.957 20.9265 103.865 20.1929C103.681 19.8722 103.544 18.8632 103.773 18.3588C104.002 17.579 103.865 17.1661 103.498 16.5701C103.086 16.0656 103.223 15.4697 103.041 14.8275C102.903 14.5523 102.903 14.0478 102.446 13.1765C102.308 12.6259 101.942 12.2591 101.667 11.617C101.164 11.1125 101.347 10.3789 100.751 10.1036C100.522 9.36999 100.11 9.36999 99.7439 8.72789C99.6525 8.31495 99.1489 7.85661 98.5531 7.44367C98.0955 7.2599 98.0034 6.89309 97.2709 6.25098C96.7212 5.88417 97.0875 5.01289 96.0801 5.24206C95.3477 5.15053 94.8893 4.73759 94.3857 4.32466C94.1108 4.18701 93.1495 4.04936 92.8286 3.5449C92.0962 3.31573 91.7753 2.94892 91.1802 2.94892C90.6305 2.81127 89.7606 2.9028 89.4405 2.49058C88.6166 2.39906 87.9295 2.5821 87.6546 2.21529C87.197 2.44446 86.235 2.30681 85.8234 2.12376C84.9536 1.84847 84.3585 2.35294 83.9923 2.21529C83.3512 2.39906 82.4813 2.58211 82.2064 2.49058C81.2905 2.62823 80.9703 2.71975 80.4667 2.94892C79.9169 3.36186 79.3679 3.26961 78.8182 3.5449C78.3146 4.00324 77.5821 3.77407 77.2159 4.32466C76.6208 4.92064 76.4834 5.24206 75.751 5.24206C75.1559 5.60887 75.0185 5.83804 74.286 6.20486C73.8737 6.6632 73.0952 6.3425 73.0499 7.44295C72.5002 8.08506 72.0426 8.31423 71.8591 8.72717C71.3094 9.4608 71.4468 9.78221 70.8518 10.1029C70.6683 10.3782 70.4855 11.341 69.9358 11.6163C69.3861 12.1207 69.2487 12.9459 69.1573 13.1758C68.9285 13.6803 68.5623 14.2308 68.5623 14.8268C68.2874 15.6981 68.3788 15.7896 68.1047 16.5694C67.647 17.2576 68.1047 17.7159 67.8298 18.3581C67.6463 19.2293 67.8758 19.3209 67.7384 20.1921C67.5549 20.6505 67.4636 21.3387 67.8298 22.0262C67.6463 22.4846 68.196 23.2189 68.1047 23.8149C68.5169 24.4109 68.196 24.7777 68.5623 25.5574L69.1573 27.2085Z" fill="#E60000"/>
<path d="M79.0277 8.0346C80.861 7.50708 82.6274 7.30169 84.3248 7.41916C84.7932 7.57554 85.1832 7.57554 85.4954 7.41916C86.7632 7.22386 87.4072 7.81048 87.4266 9.17757C87.3683 9.94002 86.9971 10.7119 86.3142 11.493C85.7293 12.04 85.5429 12.6266 85.758 13.2515C85.6408 14.0334 85.2112 14.4341 84.4701 14.4535L83.2995 14.6589C82.7526 14.7958 82.7239 15.1281 83.2117 15.6556C83.3678 16.2415 83.7966 16.4764 84.4996 16.3589C85.7674 16.2415 87.0359 16.1932 88.3044 16.2126C88.9484 16.271 89.4456 16.6919 89.7967 17.4731C90.05 18.2161 89.7183 18.5678 88.8016 18.5281C84.6845 18.255 80.9193 18.6557 77.5052 19.7302C76.3151 20.3161 75.4366 20.5611 74.8711 20.4631C74.3638 20.3658 73.9731 20.0336 73.7004 19.4664C73.5054 18.8416 73.8565 18.2939 74.7538 17.8248C76.3144 17.4536 78.1578 17.1214 80.2847 16.8281C80.733 16.7308 80.8797 16.4764 80.7236 16.0656C80.4898 15.2844 79.9134 15.2152 78.9968 15.8602C78.6845 16.1535 78.4211 16.0267 78.2067 15.479C77.3289 14.0334 76.7238 12.4703 76.3921 10.789C76.0993 9.73391 76.236 8.76679 76.8015 7.88686C76.9577 7.71102 77.1527 7.66274 77.3865 7.74057C77.8938 8.15063 78.4399 8.24864 79.0256 8.03388L79.0277 8.0346ZM75.1941 27.4095C75.4668 27.1162 75.7503 27.0975 76.0431 27.3512C76.3547 27.4881 76.7058 27.5565 77.0965 27.5565C77.4865 27.4391 77.5059 27.6639 77.1548 28.2304C76.8814 28.7975 76.7641 29.4029 76.8037 30.0479C76.8814 30.6338 76.9008 30.966 76.862 31.0445C76.1396 31.474 75.5452 31.3962 75.0768 30.8103C74.5696 29.6378 74.6084 28.5049 75.1941 27.4102V27.4095ZM84.8522 19.6127C85.2422 19.2221 85.7494 19.3489 86.374 19.9939C86.6078 20.2678 86.7639 20.5705 86.8424 20.9027C86.9006 22.4463 85.9833 23.8732 84.0917 25.182C83.9744 25.2216 83.8672 25.2216 83.77 25.182C83.3016 25.28 83.1851 25.6511 83.4189 26.2961C83.7895 27.9572 83.6628 29.5787 83.0383 31.162C82.9016 31.3962 82.531 31.6794 81.9259 32.0124C81.4575 32.3057 81.0186 32.6278 80.6092 32.9795C80.2379 33.1359 79.9947 32.9399 79.8774 32.3936C79.7019 32.0225 79.3896 31.6412 78.9406 31.2506C78.4722 31.0164 78.5312 30.9083 79.1162 30.9285C79.7789 31.0849 80.2962 30.9674 80.6675 30.5768C81.0963 29.7949 81.2913 28.4372 81.2524 26.5022C81.3107 25.8969 81.0575 25.6035 80.4912 25.623C79.9645 26.3855 79.4378 26.5318 78.9111 26.0626C77.6232 24.4995 77.2037 22.9364 77.6527 21.3726C77.9254 20.5914 78.3255 20.2101 78.8529 20.2296C79.9062 20.7377 81.1258 20.7088 82.5109 20.1417C82.9009 20.0444 83.2908 19.9853 83.6815 19.9658C84.0327 19.9658 84.4226 19.8484 84.8522 19.6141V19.6127ZM84.881 8.50375C84.432 8.32791 83.8758 8.42592 83.2131 8.79706C82.4713 9.18837 81.3007 9.57897 79.7012 9.96957C78.7255 10.3609 78.4233 11.0736 78.7939 12.1092C78.8522 12.6951 78.9889 13.1253 79.2033 13.3992C79.8271 13.6536 80.9589 13.5556 82.5979 13.1059C83.5729 12.8328 84.2464 12.2555 84.6169 11.3763L84.9975 9.32458C84.9975 8.85543 84.9579 8.5823 84.8802 8.50375H84.881ZM82.013 10.3796L82.3641 10.2917C82.9491 10.2139 83.2908 10.2139 83.3887 10.2917C83.642 10.7414 83.4369 11.1522 82.7742 11.5226C81.9547 12.0897 81.174 12.3045 80.4329 12.1676C79.7889 12.0314 79.5738 11.6984 79.7889 11.1709C80.1789 10.9367 80.92 10.6729 82.013 10.3796ZM83.5642 21.3127C82.7836 21.547 82.0029 21.8107 81.2229 22.104C80.2084 22.3779 79.935 23.0034 80.4034 23.9799C80.9301 24.2538 81.7396 24.2141 82.8325 23.8624C83.652 23.4329 84.1298 22.8463 84.2665 22.104C84.3442 21.6349 84.3442 21.3618 84.2665 21.2832C83.9542 21.2054 83.7197 21.2147 83.5642 21.3127ZM85.6422 26.5599C86.0905 26.1887 86.7049 26.2961 87.4856 26.882C88.0706 27.3706 88.3929 27.9471 88.4512 28.6116C88.5289 29.0411 88.4116 29.4324 88.1001 29.7841C87.5734 30.3116 87.0467 30.2922 86.52 29.7257C86.3049 29.4713 86.1394 29.0224 86.0228 28.3774L85.8178 27.7915C85.6422 27.0687 85.5839 26.6586 85.6422 26.5606V26.5599ZM94.48 24.4786C94.675 23.8149 95.065 23.5115 95.6507 23.5698C96.6846 23.9215 97.2502 24.5471 97.348 25.4457C97.4063 26.2276 97.0451 27.0096 96.2651 27.7908C94.2354 29.4122 91.8948 30.7217 89.2412 31.7183C88.539 32.0117 88.1972 32.0996 88.2166 31.9821C89.0362 30.2821 90.7234 28.3471 93.2799 26.1786C93.9425 25.6908 94.3426 25.1236 94.48 24.4786ZM93.8656 15.9489C94.4505 15.4999 95.0844 15.4408 95.768 15.773C96.5292 16.32 96.7141 16.9556 96.3241 17.6785C95.2708 18.9684 93.8267 19.7504 91.9927 20.0235L90.5292 20.4926C89.9629 20.6685 89.8269 20.4631 90.1198 19.8772C91.212 18.2557 92.4611 16.9463 93.8656 15.9496V15.9489ZM94.8024 9.00173C96.1874 8.82588 96.948 9.40241 97.0854 10.7313C97.0458 11.083 96.8997 11.3568 96.6465 11.5521C96.3536 11.7676 95.9047 11.9139 95.3003 11.9917C93.7389 12.1676 92.1783 12.3831 90.6177 12.6367C89.8758 12.7347 89.7787 12.471 90.3248 11.8454C91.807 10.4193 93.3 9.47088 94.8024 9.00245V9.00173Z" fill="#E60000"/>
<path d="M120.304 40.2337C130.691 40.2337 139.112 31.7999 139.112 21.3964C139.112 10.9928 130.691 2.55905 120.304 2.55905C109.917 2.55905 101.497 10.9928 101.497 21.3964C101.497 31.7999 109.917 40.2337 120.304 40.2337Z" fill="#FDFFE9"/>
<path d="M139.976 21.1088C139.656 21.934 140.067 22.2554 139.884 23.1267C139.93 23.7226 139.838 24.4563 139.564 25.0984C139.564 25.8781 139.427 26.4287 139.107 26.9786C138.878 27.896 138.786 28.3082 138.419 28.8127C138.191 29.3632 138.099 29.8677 137.596 30.5552C137.046 31.1973 137.046 31.5641 136.588 32.2063C135.947 32.8484 135.672 33.5359 135.443 33.7196C134.848 34.2702 134.665 34.5909 134.161 35.1415C134.024 35.7836 133.108 35.8751 132.788 36.4257C132.375 37.1139 132.055 37.3885 131.231 37.5723C130.59 37.6638 129.903 38.5812 129.628 38.5812C128.85 38.6273 128.758 39.361 127.889 39.4064C127.11 39.9569 126.515 39.9569 126.057 40.0946C125.141 40.1407 124.73 39.7278 124.18 40.5529C123.585 40.736 123.127 40.8282 122.212 40.8736C121.479 40.7821 120.929 41.1028 120.197 40.9651C119.281 40.8736 119.006 41.0113 118.182 40.8736C117.541 40.5529 116.992 40.6906 116.214 40.5529C115.847 40.2322 114.886 40.5529 114.337 40.0946C113.513 39.7278 112.963 39.8193 112.505 39.4064C112.048 39.2233 111.132 38.8558 110.766 38.5812C110.262 38.0306 109.621 38.2605 109.117 37.5723C108.339 37.3431 108.201 36.884 107.606 36.4257C106.874 35.9674 106.507 35.6006 106.187 35.1415C105.912 34.4079 105.317 34.5455 104.904 33.7196C104.217 33.3989 104.034 32.7107 103.76 32.2063C103.485 31.4265 102.89 31.335 102.752 30.5552C102.524 29.7755 101.882 29.2256 101.928 28.8127C101.7 28.1706 101.425 27.62 101.287 26.9786C100.921 26.5203 100.646 25.6029 100.784 25.0984C100.784 24.5478 100.417 23.6765 100.464 23.1267C100.326 22.2554 100.189 22.0716 100.372 21.1088C100.052 20.2375 100.189 19.687 100.464 19.091C100.51 18.5865 100.555 18.0359 100.784 17.1192C101.196 16.7063 100.83 15.7896 101.287 15.2391C101.333 14.8722 101.975 13.7257 101.928 13.405C101.975 12.7167 102.386 12.0754 102.752 11.6624C103.302 11.4332 103.119 10.745 103.76 10.0114C104.217 9.23164 104.309 9.00247 104.904 8.49801C105.592 8.13119 105.592 7.25991 106.187 7.07614C106.461 6.9385 107.194 6.25099 107.606 5.79193C108.156 5.37899 108.43 5.1037 109.117 4.64536C109.712 4.59924 110.124 3.95713 110.766 3.68256C111.086 3.63644 112.002 2.81128 112.505 2.81128C113.329 2.39834 113.375 2.12305 114.337 2.16918C115.206 2.07765 115.801 2.03153 116.214 1.66472C116.946 1.34402 117.358 1.43554 118.182 1.34402C118.777 1.16025 119.693 1.34402 120.197 1.2525C120.838 1.11485 121.617 1.16097 122.212 1.34402C122.899 1.75696 123.631 1.48167 124.18 1.66472C124.5 2.07765 125.188 1.84848 126.057 2.16918C126.973 2.48987 127.156 2.90281 127.889 2.81128C128.346 3.26962 129.354 3.49951 129.628 3.68256C130.452 3.86633 130.727 4.46231 131.231 4.64536C131.918 4.73688 132.284 5.60816 132.788 5.79193C133.337 5.92958 133.429 6.57168 134.161 7.12154C134.756 7.76365 135.123 7.99282 135.443 8.49728C136.131 9.32244 136.131 9.50621 136.588 10.0568C137.138 10.6074 137.138 10.8365 137.596 11.6617C137.642 12.2123 138.465 12.8083 138.419 13.4043C138.969 14.184 138.923 14.8715 139.107 15.2383C139.015 16.1096 139.381 16.431 139.564 17.1185C139.702 18.0359 139.793 18.3566 139.884 19.0903C139.609 20.0531 140.113 20.5121 139.976 21.1081V21.1088ZM103.529 28.1259C103.529 28.9518 103.987 29.4562 104.308 29.7308C104.399 30.419 105.04 30.9689 105.224 31.198C105.544 31.5649 105.59 32.0693 106.277 32.6199C106.918 33.0783 106.827 33.4451 107.422 33.9041C107.972 34.5924 108.475 34.5924 108.704 35.0507C108.933 35.7389 109.208 36.4264 110.124 36.1057C110.673 36.381 110.948 36.977 111.589 36.977C111.817 37.1147 112.687 37.4815 113.191 37.7568C113.42 38.1697 114.565 37.9859 114.839 38.3528C115.16 38.4904 115.709 38.9033 116.579 38.8111C116.992 38.6734 117.633 39.2702 118.365 39.0864C118.96 39.4071 119.785 39.0403 120.196 39.1779C120.609 39.361 121.158 39.3156 122.027 39.0864C122.394 39.3156 123.218 38.9026 123.813 38.8111C124.088 38.8572 124.729 38.8572 125.553 38.3528C126.011 38.2151 126.789 37.8944 127.201 37.7568C127.659 37.4815 128.529 37.2062 128.758 36.977C129.033 36.8855 129.446 36.1973 130.269 36.1057C130.957 35.8304 131.414 35.4175 131.643 35.0507C132.238 34.5924 132.375 34.2709 132.925 33.8587C133.429 33.7211 134.024 33.3543 134.116 32.5745C134.207 32.1616 135.077 31.5656 135.123 31.1988C135.718 30.6943 135.993 30.1898 136.039 29.7315C136.497 28.9518 136.452 28.8141 136.818 28.1266C137.047 27.8974 137.321 26.8424 137.413 26.4756C137.275 25.925 137.642 25.6497 137.87 24.733C137.824 24.2286 138.374 23.8156 138.145 22.9443C137.916 22.6236 138.329 21.8439 138.237 21.1103C138.053 20.7896 137.916 19.7806 138.145 19.2762C138.374 18.4964 138.237 18.0835 137.87 17.4875C137.458 16.983 137.596 16.3871 137.413 15.745C137.275 15.4697 137.275 14.9652 136.818 14.0939C136.68 13.5433 136.314 13.1765 136.039 12.5344C135.536 12.03 135.719 11.2963 135.123 11.021C134.895 10.2874 134.482 10.2874 134.116 9.64529C134.025 9.23236 133.521 8.77402 132.925 8.36108C132.468 8.17731 132.375 7.8105 131.643 7.16839C131.093 6.80157 131.46 5.9303 130.452 6.15947C129.72 6.06794 129.261 5.65501 128.758 5.24207C128.483 5.10442 127.522 4.96678 127.201 4.46231C126.468 4.23314 126.147 3.86633 125.552 3.86633C125.003 3.72868 124.133 3.82021 123.813 3.40799C122.989 3.31647 122.302 3.49951 122.027 3.1327C121.569 3.36187 120.607 3.22422 120.196 3.04117C119.326 2.76588 118.731 3.27034 118.364 3.1327C117.723 3.31647 116.853 3.49951 116.579 3.40799C115.663 3.54564 115.342 3.63716 114.839 3.86633C114.289 4.27927 113.74 4.18702 113.19 4.46231C112.687 4.92065 111.954 4.69148 111.588 5.24207C110.993 5.83805 110.855 6.15947 110.123 6.15947C109.528 6.52628 109.391 6.75545 108.658 7.12227C108.246 7.58061 107.467 7.25991 107.422 8.36036C106.872 9.00247 106.415 9.23164 106.231 9.64457C105.681 10.3782 105.819 10.6996 105.224 11.0203C105.04 11.2956 104.858 12.2584 104.308 12.5337C103.758 13.0382 103.621 13.8633 103.529 14.0932C103.301 14.5977 102.934 15.1482 102.934 15.7442C102.659 16.6155 102.751 16.707 102.477 17.4868C102.019 18.175 102.477 18.6334 102.202 19.2755C102.018 20.1467 102.248 20.2383 102.11 21.1095C101.927 21.5679 101.836 22.2561 102.202 22.9436C102.018 23.402 102.568 24.1363 102.477 24.7323C102.889 25.3283 102.568 25.6951 102.934 26.4748L103.529 28.1259Z" fill="#E60000"/>
<path d="M108.939 10.0337C109.192 9.34984 109.387 9.0277 109.524 9.06662C109.972 9.30083 110.314 9.54586 110.548 9.79953C110.86 10.0539 111.25 10.1123 111.719 9.97537C112.109 9.89754 112.499 9.84853 112.89 9.82907C113.397 9.82907 113.787 9.76061 114.06 9.62369C114.84 8.9787 115.475 9.00824 115.963 9.71161C115.943 10.8452 115.299 12.3305 114.031 14.1667C113.602 14.6553 113.485 15.105 113.68 15.5151C113.758 15.6325 113.865 15.7493 114.002 15.8668C114.88 16.4923 115.445 17.2346 115.699 18.0943C116.128 19.834 115.865 21.534 114.909 23.1944C114.441 23.9374 113.895 24.377 113.27 24.5132C112.665 24.6696 112.333 24.4448 112.275 23.8394C112.314 23.273 111.963 22.7945 111.222 22.4031C110.812 22.2669 110.549 22.2669 110.432 22.4031C110.353 22.5984 110.314 22.9307 110.314 23.3998C110.256 25.9012 110.363 28.3241 110.636 30.6691C110.655 30.9422 110.529 31.3328 110.255 31.8416C109.826 32.3691 109.553 32.6134 109.436 32.5745C108.851 32.047 108.47 31.2161 108.295 30.0832C107.982 22.3844 108.061 16.6782 108.529 12.9654C108.665 11.5587 108.801 10.5814 108.938 10.0345L108.939 10.0337ZM113.182 11.7921C113.104 11.4405 112.841 11.4016 112.392 11.6747C111.924 11.87 111.456 12.1049 110.988 12.378C110.832 12.5344 110.704 12.8472 110.607 13.3163C110.334 15.5252 110.227 18.1231 110.286 21.1132C110.324 21.3085 110.403 21.5045 110.519 21.6991C110.89 22.0507 111.544 22.1783 112.48 22.0803C112.812 22.0414 113.036 21.9628 113.153 21.8461C113.485 21.4749 113.699 20.7226 113.797 19.589C113.953 18.6507 113.885 17.7916 113.592 17.0097C113.299 16.0916 112.811 15.9158 112.128 16.4822C111.679 16.7755 111.504 16.6191 111.602 16.0131C111.855 15.1338 112.264 14.0687 112.831 12.8184C113.064 12.4278 113.182 12.0855 113.182 11.7921H113.182ZM126.878 19.3547C127.756 19.1205 128.448 19.3547 128.956 20.0581C129.425 20.7226 129.512 21.2306 129.22 21.5823C128.966 21.7387 128.439 21.7877 127.64 21.7286C126.235 21.787 124.986 21.8951 123.894 22.0507C123.484 22.0507 123.152 22.3246 122.899 22.8716C121.728 24.4354 120.626 25.9985 119.592 27.5616C118.421 29.2422 117.26 30.3852 116.109 30.9912C115.465 31.3429 115.26 31.2449 115.495 30.6979C116.529 28.6657 117.953 26.4381 119.767 24.0145C119.865 23.8192 119.913 23.6629 119.913 23.5454C119.894 23.389 119.572 23.3501 118.948 23.4279C117.972 23.5843 117.24 23.0863 116.753 21.9333C116.655 21.5427 116.909 21.24 117.514 21.0245C120.284 20.3795 123.406 19.8225 126.879 19.354L126.878 19.3547ZM120.791 8.21624C121.084 8.00148 121.503 7.98202 122.05 8.15786C123.298 8.41226 124.157 9.26192 124.625 10.7083C124.761 10.9036 124.995 11.0506 125.327 11.1479C126.673 11.3237 127.717 11.158 128.458 10.6499C129.317 10.9043 129.99 11.6761 130.477 12.9654C130.613 13.4345 130.555 13.7567 130.302 13.9325C129.951 14.1667 129.492 14.2453 128.926 14.1667C128.165 13.9325 127.443 13.864 126.76 13.9613C126.116 14.0593 126.067 13.8345 126.614 13.2875C127.063 13.0338 127.238 12.7117 127.141 12.3204C127.043 12.2029 126.682 12.1546 126.058 12.1741C125.629 12.1546 125.19 12.1741 124.741 12.2325C124.487 12.2721 124.127 12.5942 123.659 13.1996C123.287 13.6882 122.878 13.903 122.43 13.8446C122.098 13.8446 121.883 13.6493 121.786 13.2587C121.668 12.7506 121.278 12.595 120.615 12.7895C119.093 13.1412 118.4 13.8446 118.537 14.9004C118.459 15.2917 118.41 15.6823 118.391 16.0729C118.254 16.6984 117.806 17.285 117.045 17.8313C116.694 17.8313 116.469 17.5675 116.372 17.04C116.099 15.438 116.226 13.9621 116.753 12.6137C116.948 11.617 117.348 11.2949 117.953 11.6466C118.46 11.7835 119.475 11.6956 120.996 11.3828C121.465 11.305 121.758 11.207 121.874 11.0895C121.932 10.66 121.65 10.2298 121.025 9.79953C120.478 9.23309 120.401 8.70557 120.791 8.21696V8.21624ZM119.972 16.101C122.547 15.5735 124.42 15.3587 125.59 15.456C126 16.2574 125.678 16.9023 124.625 17.3902C123.493 17.7614 122.371 18.0158 121.26 18.1527C120.537 18.2312 119.972 18.1231 119.562 17.8306C118.84 17.1272 118.977 16.5507 119.972 16.101ZM123.279 24.4844C123.415 23.3703 123.941 22.9307 124.859 23.1656C125.62 23.6347 125.717 24.2992 125.152 25.1589C124.936 26.0194 124.888 26.9174 125.005 27.8557C125.044 28.657 125.405 29.1161 126.088 29.2336C127.844 29.2336 129.015 28.8819 129.6 28.1785C129.912 27.749 130.108 27.2402 130.185 26.6543C130.38 26.0295 130.526 25.9704 130.624 26.4785C130.644 26.9865 130.858 27.4557 131.268 27.8852C132.302 28.4127 132.37 29.1456 131.473 30.0839C131.258 30.9631 130.624 31.4906 129.571 31.6665C127.853 32.1356 126.371 32.2135 125.123 31.9007C123.425 30.9819 122.674 29.2919 122.869 26.8294C122.927 26.0482 123.064 25.2663 123.279 24.4844Z" fill="#E60000"/>
</svg>
